<?xml version="1.0" encoding="UTF-8"?>
<svg id="_레이어_1" data-name="레이어 1" xmlns="http://www.w3.org/2000/svg" viewBox="0 0 3061.42 3061.42">
  <defs>
    <style>
      .cls-1 {
        fill: #003964;
      }

      .cls-2, .cls-3, .cls-4, .cls-5, .cls-6, .cls-7 {
        stroke: #000;
      }

      .cls-2, .cls-3, .cls-4, .cls-5, .cls-6, .cls-7, .cls-8 {
        stroke-linejoin: round;
      }

      .cls-2, .cls-3, .cls-4, .cls-6, .cls-7 {
        stroke-width: 5px;
      }

      .cls-2, .cls-3, .cls-5, .cls-9 {
        fill: none;
      }

      .cls-10, .cls-4, .cls-8 {
        fill: #fff;
      }

      .cls-3, .cls-4, .cls-6, .cls-7 {
        stroke-linecap: round;
      }

      .cls-5 {
        stroke-width: 19px;
      }

      .cls-9 {
        stroke: #231815;
        stroke-miterlimit: 10;
        stroke-width: 14px;
      }

      .cls-7 {
        fill: #75c0cc;
      }

      .cls-8 {
        stroke: #fff;
        stroke-width: 6px;
      }

      .cls-11 {
        fill: #ed1a3b;
      }
    </style>
  </defs>
  <g>
    <path class="cls-11" d="m2803.33,1755.81c0,442.29-267.98,821.99-650.44,985.57,64.29-36.38,161.24-101.79,250.19-211.12,73.87-90.79,115.98-179.63,140.11-243.05,36.22-80.74,127.04-312.48,57.19-591.91-71.02-284.08-284.31-522.26-551.85-617.64-175.28-62.49-327.55-47.19-380.3-40.02-237.6,32.23-392.47,162.01-448.92,214.45-30.83,30.56-69.07,74.8-102.94,134.39-41.86,73.65-60.83,142.22-70.05,190.23,1.79-60.97,12.96-115.15,20.73-152.83,45.87-222.42,192.56-358.54,254.48-408.91,211.63-172.14,452.37-171.71,534.7-171.56,461.08.81,760.04,354.56,809.2,414.61l33.78,36.46c66.75,139.71,104.12,296.16,104.12,461.32Z"/>
    <path class="cls-1" d="m2699.2,1294.49l-33.78-36.46c-49.16-60.06-348.11-413.81-809.2-414.61-82.33-.15-323.07-.58-534.7,171.56-61.92,50.37-208.61,186.49-254.48,408.91-7.78,37.69-18.94,91.86-20.73,152.83-2.5,84.62,13.06,182.37,80.78,267.5,20.73,26.05,43.57,47.45,67.07,65.03,100.96,75.54,213.92,80.59,221.72,80.81,198.24,5.67,315.43-148.61,325.97-163,17.73-36.47,56.77-102.81,132.28-146.05,141.1-80.81,332.25-36.69,440.34,74.34,121.78,125.09,103.35,299.39,97.22,357.43-22.82,215.77-178.64,357.56-260.21,431.78-62.83,57.17-118.95,89.79-137.25,100.08-83.01,46.68-154.27,65.02-203.02,77.21-58.75,14.68-141.83,29.5-243.04,28.59-50.54.82-111.52-2.11-179.62-13.71-78.26-13.34-144.32-34.44-196.1-54.99,0,0-.01,0-.02-.01,0,0,0,0-.01,0-312.59-185.72-536.52-543.02-531.93-925.91,6.35-529.51,449.28-1071.45,1071.42-1071.45,426.57,0,794.91,249.29,967.29,610.13Z"/>
  </g>
  <g>
    <g>
      <g>
        <path class="cls-10" d="m426.48,420.47c129.38-53.07,430.15-154.52,807.58-78.36,373.94,75.45,622.1,284.66,726.92,384.47"/>
        <g>
          <path class="cls-10" d="m840.96,2747.45c-84.29-68.99-188.97-170.09-288.11-312.08-123.3-176.6-183.08-337.73-203.15-395.39-35.45-101.85-55.4-192.24-67.02-258.59-8.42-48.12-23.5-136.46-24.54-251.16-.71-79.03,5.56-134.33,18.68-241.1,28.85-234.75,43.27-352.13,53.93-416.94,21.57-131.09,51.4-285.47,93.47-457.24"/>
          <path class="cls-10" d="m1959.86,720.87c-16.15,178.11-36.52,331.62-55.54,455.12-23.89,155.17-46.47,268.28-61.69,344.06-26.25,130.66-39.85,197.53-63.21,272.54-9.04,29.03-44.96,141.77-114.05,280.58-29.31,58.89-70.45,141.54-137.2,233.8-45.24,62.53-135.86,185.53-289.77,288.21-152.36,101.65-298.78,138.03-396.3,152.08"/>
        </g>
      </g>
      <polygon class="cls-8" points="426.48 420.47 1193.73 573.53 1960.98 726.58 1402.52 1737.12 844.06 2747.65 635.27 1584.06 426.48 420.47"/>
    </g>
    <path class="cls-2" d="m891.23,1231.95c-2.46,22.88-53.76,36.48-71.41,41.16-17.58,4.66-36.83,9.76-64.57,10.46-11.92.3-30.03-.09-100.85-15.56-37.63-8.22-56.45-12.33-75.41-18.04-53.24-16.02-84.21-32.7-99.51-41.64-30.15-17.61-56.15-32.78-54.43-48.21,1.53-13.74,24.27-20.82,59.36-31.33,54.67-16.38,97.92-17.71,107.16-17.93,33.62-.8,57.38,2.51,89.78,7.02,6.42.89,75.64,10.88,142.67,37.8,0,0,32.17,12.92,56.2,42.44,2.08,2.55,6.48,8.07,9.07,16.74,2.26,7.55,2.22,14.4,1.92,17.1Z"/>
    <path class="cls-3" d="m282.04,1248.38c6.94-13.96,29.71-55.47,69.13-63.31,22.28-4.43,41.88,3.47,69.61,14.66,24.66,9.95,25.4,14.74,62.39,33.46,15.88,8.04,38.71,19.49,68.14,29.34,5.83,1.95,30.99,10.22,67.72,16.27,31.89,5.25,78.39,9.8,136.22,4.77"/>
    <path class="cls-6" d="m872.84,1218.01c1.94-25.27-115.07-58.72-200.34-71.56-12.89-1.94-58.03-8.38-116.76-3.84-25.96,2.01-93.44,7.23-95.07,24.33-1.38,14.43,44.91,30.56,81.89,44.63,39.08,14.87,67.84,20.39,118.82,30.17,23.66,4.54,69.01,12.55,118.42,10.93,7.98-.26,24.32-1.01,44.52-7.46,19.49-6.22,47.6-15.1,48.53-27.2Z"/>
    <path class="cls-3" d="m338.05,1071.17c10.22,13.43,22.1,27.7,35.84,42.17,17.81,18.76,35.24,34.19,51.17,46.78"/>
    <path class="cls-3" d="m290.37,1171.43c5.99-8.67,18.05-23.29,36.96-29.25,13.84-4.36,25.35-2.12,47.8,2.53,12.62,2.62,29.89,7.13,49.92,15.41"/>
    <line class="cls-5" x1="1059.4" y1="2209.03" x2="804.86" y2="2158.25"/>
    <path class="cls-3" d="m893.26,2738.71c-.16.38-.33.78-.5,1.17"/>
    <g>
      <path class="cls-6" d="m962.5,2362.03c-7.83,24.85,5.41,43.17,11.99,72.14,3.16,13.92,6.37,37.59-18.53,126.9-12.65,45.38-32.23,106.5-62.7,177.64-16.68,3.67-33.82,7.13-51.45,10.37-9.28-7.83-19.01-16.23-29.14-25.18-12.02-78.27-15.92-143.47-16.98-191.23-2.08-93.49,6.82-115.29,13.26-127.72,13.43-25.88,30.65-39.48,29.21-65.76-.81-14.79-8.85-28.91-29.08-56.64-10.64-14.58-26.52-34.38-48.44-55.48,46.87,14.77,97.56,28.25,151.81,39.34,49.87,10.18,97.61,17.3,142.78,22.05-12.88,4.88-31.17,13.27-50.88,27.92-25.87,19.22-36.77,29.46-41.86,45.65Z"/>
      <path class="cls-6" d="m760.64,2227.08c-.38-.37-.76-.73-1.15-1.1"/>
      <line class="cls-6" x1="1055.24" y1="2288.45" x2="1055.23" y2="2288.46"/>
      <path class="cls-6" d="m1264.55,2295.64c-60.53,2.2-131.06,1.05-209.31-7.18h-.01"/>
      <path class="cls-6" d="m586.67,2160.41c50.07,22.74,108.28,45.97,173.97,66.67"/>
    </g>
    <path class="cls-2" d="m1250.88,1294.1c-3.66,22.68,41.82,52.4,57.47,62.63,15.58,10.18,32.65,21.33,58.99,31.05,11.31,4.17,28.74,9.7,100.52,17.98,38.15,4.4,57.22,6.6,76.85,7.32,55.12,2.03,89.11-3.83,106.09-7.39,33.46-7.01,62.3-13.05,64.71-28.36,2.15-13.63-17.74-27.82-48.53-49.31-47.97-33.47-88.98-48.84-97.76-52.07-31.94-11.72-55.53-16.3-87.7-22.55-6.37-1.24-75.19-14.24-146.35-10.35,0,0-34.15,1.87-64.89,22.27-2.66,1.76-8.32,5.61-13.07,13.05-4.14,6.49-5.9,13.05-6.33,15.73Z"/>
    <path class="cls-3" d="m1842.35,1521.87c-3.71-16.59-18.56-74.77-62.74-96.61-22.3-11.03-46.12-10.03-70.41-8.66-26.19,1.48-28.16,5.81-68.45,11.66-17.3,2.51-42.14,6.02-72.86,5.85-6.08-.03-32.32-.32-69.03-6.51-31.87-5.37-77.53-16.17-131.52-39.83"/>
    <path class="cls-6" d="m1272.12,1286.77c4.78-24.8,125.46-18.65,210.37-3.15,12.84,2.34,57.69,10.89,112.66,34.38,24.3,10.38,87.45,37.36,84.52,54.25-2.47,14.25-50.97,14.59-90.03,15.99-41.27,1.48-70.23-2.61-121.54-9.87-23.82-3.37-69.28-10.49-116.11-28.14-7.56-2.85-22.99-8.9-40.61-21.64-17-12.3-41.55-29.95-39.26-41.82Z"/>
    <path class="cls-3" d="m1822.08,1320.62c-13.3,9.52-28.41,19.28-45.35,28.64-21.96,12.14-42.68,21.21-61.22,28.06"/>
    <path class="cls-3" d="m1857.6,1449.12c-6.29-16.85-19.13-42.56-43.92-57.11-14.31-8.4-28.11-10.45-46.38-13.16-21.22-3.15-39.16-2.65-51.79-1.54"/>
    <path class="cls-3" d="m1014.55,1157.25c-8.7,80.74-31.21,196.69-93.06,317.95-24.63,48.28-51.2,89-76.56,122.72"/>
    <path class="cls-3" d="m1159.8,1182.71c-17.01,79.08-32.03,196.53-11.82,334.16,8.05,54.8,20.28,103.26,33.56,144.69"/>
    <path d="m859.77,1864.48c-2.06,5.13-5.85,9.67-9.12,14.06-3.58,4.81-7.31,9.52-11.14,14.14-7.8,9.43-16.03,18.48-24.4,27.41-8.38,8.94-16.77,17.86-25.15,26.8-7.69,8.19-15.09,17.3-25.05,22.82l8.21,2.15c.85,1.51-.47,1.54,2,.71.96-.32,1.9-.75,2.82-1.16,2.56-1.14,4.94-2.52,7.19-4.18,4.46-3.28,8.05-7.24,11.16-11.81,3.92-5.76-4.65-11.89-9.42-7.27-4.42,4.28-9.07,8.25-14.07,11.84-6.22,4.46-.24,14.87,6.06,10.36,5.83-4.18,11.34-8.72,16.5-13.71l-9.42-7.27c-4.31,6.34-9.77,9.7-16.64,12.66-6.38,2.76-10.25,9.29-6.53,15.89,1.61,2.87,5.41,3.71,8.21,2.15,10.62-5.89,18.61-15.26,26.82-23.99,9.06-9.65,18.13-19.28,27.17-28.95,8.75-9.36,17.31-18.89,25.39-28.83,7.66-9.43,16.42-19.25,20.99-30.62,2.88-7.16-8.72-10.28-11.57-3.19h0Z"/>
    <path d="m673.88,2008.87c14.36,3.36,28.73,6.72,43.09,10.08,7.51,1.76,10.72-9.81,3.19-11.57-14.36-3.36-28.73-6.72-43.09-10.08-7.51-1.76-10.72,9.81-3.19,11.57h0Z"/>
    <path d="m968.95,1975.88c-6,.34-11.44,1.94-16.61,5.03-5.73,3.42-2.02,13.01,4.62,10.97l4.54-1.4c-2.46-1.4-4.92-2.79-7.38-4.19.19,1.05.37,2.09.56,3.14,1.4-2.46,2.79-4.92,4.19-7.38-10.55,3.64-20.5,9.05-30.01,14.85-4.32,2.64-8.07,5.72-11.33,9.6-3.44,4.1-6.27,7.31-11.14,9.76-4.57,2.3-8.39,4.97-11.87,8.75-3.35,3.63-6.44,7.26-10.52,10.11-7.38,5.17-15.14,9.63-19.4,17.93-3.52,6.86,6.83,12.94,10.36,6.06,3.71-7.23,11.13-10.6,17.38-15.28,3.6-2.69,6.57-5.77,9.55-9.1,3.68-4.1,7.25-6.33,12.07-8.87,8.16-4.3,11.99-12.85,19.6-17.75,8.85-5.7,18.53-11.05,28.49-14.49,3.29-1.13,4.79-4,4.19-7.38-.19-1.05-.37-2.09-.56-3.14-.55-3.13-4.51-5.07-7.38-4.19-1.51.47-3.03.93-4.54,1.4,1.54,3.66,3.08,7.31,4.62,10.97,3.34-1.99,6.65-3.17,10.56-3.39,7.68-.44,7.73-12.44,0-12h0Z"/>
    <path d="m878.61,2044.73c-1.57,3.29-5.32,4.77-7.79,7.36-2.72,2.85-4.54,6.42-7.26,9.27-5.17,5.41-11.46,9.28-14.87,16.2-3.41,6.9,6.94,12.99,10.36,6.06s10.31-10.28,14.93-15.99c2.45-3.03,4.33-6.4,7.37-8.89s5.89-4.32,7.62-7.94c3.31-6.93-7.03-13.03-10.36-6.06h0Z"/>
    <path d="m967.02,1986.59c2.5,2.51,5.1,5.02,7.18,7.9,2.09,2.89,3.57,6.17,5.55,9.13,3.6,5.36,7.85,10.27,11.48,15.62,7.99,11.75,15.57,24.06,22.22,36.61,6.61,12.46,9.07,25.74,13.82,38.85,2.32,6.41,5.07,12.66,7.92,18.85,1.5,3.27,3.04,6.52,4.56,9.78.63,1.36,1.26,2.72,1.88,4.08.37.82.74,1.64,1.11,2.46.42,1.79.72,1.82.91.1l9.42-1.21c-1.13-.88-1.5-1.24-1.1-2.69,2.05-7.46-9.52-10.64-11.57-3.19-1.42,5.14-.17,10.99,4.18,14.37,2.82,2.19,7.51,2.6,9.42-1.21,3.25-6.46-1.16-12.85-3.9-18.75-3.19-6.87-6.51-13.69-9.33-20.72-5.66-14.11-8.14-29.07-14.92-42.78s-14.88-26.56-23.24-39.06c-4.24-6.34-9.4-12.1-13.43-18.56-4.15-6.65-8.13-12.44-13.7-18.05-5.45-5.49-13.94,3-8.49,8.49h0Z"/>
    <path d="m864.53,1876.73c5.96,5.71,12.58,10.6,19.9,14.45,6.82,3.59,12.86-6.65,6.06-10.36-5.71-3.11-10.45-7.08-14.69-12-4.72-5.49-12.15,1.5-9.42,7.27,5.33,11.29,18.19,19.08,28.9,24.58,4.84,2.48,12.04-2.99,8.21-8.21-3.38-4.61-7.21-8.36-12.15-11.29-5.71-3.38-12.59,4.92-7.27,9.42,24.81,21.04,55.45,31.43,86.02,41.01,7.39,2.31,10.55-9.27,3.19-11.57-28.45-8.92-57.61-18.31-80.73-37.92-2.42,3.14-4.85,6.28-7.27,9.42,3.09,1.83,5.71,4.07,7.85,6.98l8.21-8.21c-8.99-4.62-20.11-10.77-24.6-20.27-3.14,2.42-6.28,4.85-9.42,7.27,4.85,5.63,10.59,10.32,17.12,13.88,2.02-3.45,4.04-6.91,6.06-10.36-6.45-3.39-12.21-7.53-17.47-12.57-5.58-5.34-14.07,3.13-8.49,8.49h0Z"/>
    <path d="m1097.55,1908.85c-2.73,4.01-11,2.87-15.2,3.76-6.28,1.32-12.4,3.56-18.63,5.15-13.01,3.32-26.24,5.65-39.6,6.99-7.61.76-7.69,12.77,0,12,15.69-1.56,31.25-4.27,46.48-8.38,7.13-1.93,13.85-4.15,21.22-4.94,6.69-.72,12.19-2.79,16.09-8.52,4.36-6.4-6.03-12.41-10.36-6.06h0Z"/>
    <path d="m1020.98,1924.52c-8.48.44-17.02,1.24-25.5,1.32-6.95.06-13.02-4.05-20-4.4s-8.23,10.35-1.6,11.79c8.97,1.94,18.05,2.9,27.23,2.73,7.71-.14,7.74-12.14,0-12-8.13.15-16.09-.58-24.04-2.3l-1.6,11.79c6.93.36,12.82,4.52,20,4.4,8.49-.13,17.02-.88,25.5-1.32,7.68-.4,7.73-12.4,0-12h0Z"/>
    <path d="m975.47,1979.75c.59-6.9,1.86-13.67,3.82-20.31,1.94-6.6,5.37-12.78,6.87-19.48,1.69-7.52-9.88-10.73-11.57-3.19-1.63,7.26-5.37,13.98-7.36,21.19-1.97,7.13-3.12,14.43-3.76,21.8s11.34,7.65,12,0h0Z"/>
    <path d="m860.85,1880.26c-6.07,9.04-12.13,18.09-18.2,27.13-5.54,8.26-10.64,17.19-17.68,24.29-14.21,14.32-27.8,28.85-40.92,44.21-4.99,5.84,3.46,14.37,8.49,8.49,6.81-7.98,13.62-15.96,20.7-23.7s14.38-14.35,21.39-21.71c6.77-7.1,11.83-15.77,17.27-23.87,6.43-9.59,12.87-19.18,19.3-28.78,4.31-6.43-6.08-12.44-10.36-6.06h0Z"/>
    <path d="m887.24,1970.58c7.72,0,7.73-12,0-12s-7.73,12,0,12h0Z"/>
    <path d="m941.64,1989.65c18.83,0,36.87-16.56,36-36s-15.82-36-36-36c-18.83,0-36.87,16.56-36,36,.87,19.5,15.82,36,36,36h0Z"/>
    <path d="m952.12,1976.4c15.69,0,30.73-13.8,30-30-.73-16.25-13.18-30-30-30-15.69,0-30.73,13.8-30,30s13.18,30,30,30h0Z"/>
    <path d="m852.47,1933.47c7.89,4.45,15.76,8.96,23.58,13.53,3.92,2.29,7.82,4.59,11.72,6.91,1.67.99,3.34,1.99,5.01,2.99,1.11.67,2.22,1.34,3.34,2,5.07,3.24,2.73.69-7.03-7.64-1.37-5.05-2.73-10.09-4.1-15.14l.08,1.22,1.07-7.98-.33,1.22,3.02-7.17c-3.39,8.03-5.86,14.32-6.18,23.23-.21,5.81.64,12.08,2.6,17.57,2.71,7.61,6.14,13.78,11.55,19.81,5.69,6.34,12.41,9.44,20.06,12.62-2.39-1.01-4.78-2.02-7.17-3.02,4.64,2.13,2.1-.61-7.64-8.24l-4.1-15.14-.05.97,4.1-15.14,3.61-4.76-1.4,1.16c-1.25.79-2.4,1.92-3.53,2.87-2.94,2.47,4.92-3.53,1.76-1.36-.99.68-1.94,1.42-2.93,2.1-3.97,2.72-8.13,4.82-12.48,6.84-5.62,2.6-10.98,6.25-15.19,10.8-3.12,3.37-5.57,6.97-7.74,10.92-.54.98-1.09,1.94-1.63,2.92-2.38,4.33,3.77-3.99,1.29-1.71-7.99,7.33-14.9,15.66-19.89,25.31-.93,1.8-1.84,3.61-2.83,5.38-.61,1.09-1.32,2.13-1.92,3.22-2.13,3.81,1.67-2.79,2.04-2.53-.13-.09-1.93,2.33-2.24,2.26,0,0,6-3.86,1.99-1.7-2.48,1.34-4.92,2.6-7.52,3.72,2.39-1.01,4.78-2.02,7.17-3.02-1.41.58-2.71,1.09-4.18,1.49l7.98-1.07c-.87.2-1.75.23-2.64.07,2.66.36,5.32.71,7.98,1.07l-1.16-.45c4.41,2.57,8.83,5.14,13.24,7.72,1.05,1.38,2.09,2.77,3.14,4.15,1.01,2.39,2.02,4.78,3.02,7.17l-.32-1.18,1.07,7.98c-1.19-10.69.29-22.27,1.66-32.89l-1.07,7.98c.55-3.86,1.29-7.56,2.62-11.24-1.01,2.39-2.02,4.78-3.02,7.17,1.71-4.02,4.04-7.59,6.59-11.12,1.31-1.82,2.65-3.62,3.99-5.42.68-.91,1.37-1.83,2.06-2.73-2.96,3.81-3.48,4.49-1.53,2.04,2.9-3.44,5.78-6.86,9.08-9.93,1.52-1.42,7.85-6.65.32-.55,5.03-4.07,6.69-4.91,10.24-9.5,8.26-10.69,8.44-24.51,2.06-36.21-2.98-5.47-7.18-10.5-11.07-15.28-2.69-3.3-5.48-6.51-8.23-9.76-1.93-2.41-1.34-1.64,1.76,2.3-.63-.86-1.23-1.73-1.81-2.62-1.17-1.81-2.19-3.68-3.14-5.61-8.24-16.81-34.88-19.83-47.12-6.07-.87.98-1.76,1.95-2.71,2.86-.81.78-3.81,3.16.09.21,4.14-3.14.31-.37-.68.33-2.45,1.74-5.06,3.53-7.28,5.56-5.4,4.95-8.3,11.25-11.57,17.59-2.47,4.78-5.11,9.48-7.91,14.07-.9,1.47-2.53,5.54-4.01,6.28.23-.11,4.92-5.5,1.93-2.63-3.81,3.67,6.26-3.8,1.44-1.36,2.39-1.01,4.78-2.02,7.17-3.02-7.92,3.24-14.64,5.75-21.1,11.53-4.51,4.03-8.14,9.11-11.33,14.24-5.88,9.46-13.35,20.1-16.32,30.91-4.19,15.26,2.09,30.08,10.55,42.58,3.57,5.27,7.58,10.26,11.71,15.1.65.75,1.3,1.51,1.94,2.27,1.93,2.37,1.28,1.53-1.94-2.54.66,1.74,2.11,3.42,2.9,5.16l-3.02-7.17c.38.93.69,1.89.93,2.87,4.6-11.29,9.19-22.59,13.79-33.88l-1.28.71c2.39-1.01,4.78-2.02,7.17-3.02l-1.36.43,7.98-1.07c-1.55.2-2.78.18-4.34-.02,2.66.36,5.32.71,7.98,1.07-7.93-1.68-15.75-4.99-23.34-7.79-8.1-3-16.13-6.19-24.09-9.55,2.39,1.01,4.78,2.02,7.17,3.02-1.18-.5-2.36-1-3.54-1.51-7.72-3.31-14.65-5.35-23.12-3.02-6.96,1.92-14.5,7.3-17.93,13.79-3.68,6.96-5.52,15.4-3.02,23.12,2.23,6.9,6.8,14.93,13.79,17.93,12.97,5.57,26.01,10.95,39.29,15.73,16.42,5.91,32.3,11.23,48.93,2.01,11.5-6.38,17.33-21.34,13.79-33.88-3.1-10.98-9.44-19.13-16.72-27.64-.48-.56-.96-1.13-1.44-1.69-1.96-2.42-1.44-1.73,1.56,2.08-.58-1.45-2.06-2.89-2.9-4.2-2.16-3.33-4.07-6.8-5.75-10.38,1.01,2.39,2.02,4.78,3.02,7.17-.44-.96-.78-1.96-1.01-3,.36,2.66.71,5.32,1.07,7.98-.23-1.04-.27-2.09-.13-3.14l-1.07,7.98c.15-1.03.42-2.03.82-2.99l-3.02,7.17c2.8-6.21,6.76-12.02,10.2-17.9,1.25-2.13,3.48-4.66,4.27-6.97-3.08,3.78-3.87,4.8-2.37,3.07.48-.57.99-1.11,1.53-1.61.38.9-7.34,4.37-1.21,1.52-2.39,1.01-4.78,2.02-7.17,3.02,9.05-3.53,17.59-7.12,23.87-14.89,5.03-6.21,9.27-12.79,13.2-19.73,1.48-2.61,2.9-5.24,4.28-7.9.44-.85,4.55-7.55,4.13-8.22.77,1.22-8.78,7.9-6.19,6.19,1.07-.71,2.08-1.48,3.11-2.24,4.26-3.15,8.21-6.2,11.7-10.13-15.71-2.02-31.41-4.05-47.12-6.07,3.82,7.79,9.54,14.56,15.13,21.13,1.03,1.22,2.08,2.42,3.11,3.64.73.86,4.48,5.59,1.2,1.29-3.29-4.3.33.54.95,1.48.91,1.37,1.77,2.77,2.49,4.24l-3.02-7.17.2.88v-15.95l-.31,1.2c2.57-4.41,5.14-8.83,7.72-13.24-2.62,3.15,2.83-1.88,2.92-1.95-2.42,1.95-4.97,3.74-7.38,5.7-1.71,1.4-3.37,2.86-4.95,4.41-3.22,3.15-6.13,6.59-8.94,10.11-6.52,8.18-14.24,16.98-18.78,26.54-5.92,12.45-7.46,25.45-8.54,39.07-.99,12.59-2.37,27.23,4.23,38.55,5.92,10.15,17.71,17.19,29.62,16.81,8.89-.29,16.62-3.62,24.5-7.48,11.06-5.41,19.84-14.72,25.72-25.43,1.95-3.55,3.62-7.25,5.76-10.7.2-.32,1.67-2.46,1.66-2.49.29.44-5.23,5.85-1.71,2.51,1.52-1.44,3-2.94,4.51-4.4,4.46-4.33,8.61-9.26,11.7-14.67.66-1.16,4.33-6.85,1.03-2.61-4.07,5.22,3.23-2.04-2.19,2.22-4.1,3.23-.47.62.69,0,4.31-2.26,8.78-4,12.9-6.62,6.22-3.95,11.98-8.69,17.68-13.33,9.06-7.38,13.77-18.04,12.2-29.79-.99-7.39-4.08-13.58-9.45-18.76-5.28-5.09-9.55-6.37-16.27-9.16,2.39,1.01,4.78,2.02,7.17,3.02-.2-.1-2.02-1.23-2.09-1.18.54-.36,6.38,5.8,2.86,1.89-1.53-1.7,2.87,5.36,2.43,3.07-.14-.77-1.18-2.15-1.5-2.83,1.01,2.39,2.02,4.78,3.02,7.17-.84-2.04-1.42-4.06-1.8-6.24l1.07,7.98c-.26-2.2-.28-4.3-.03-6.49l-1.07,7.98c.31-1.74.75-3.33,1.4-4.97-1.01,2.39-2.02,4.78-3.02,7.17,2.69-6.36,5.3-11.53,4.84-18.76-.55-8.62-3.64-16.8-10.02-22.78-5.58-5.24-12.89-8.85-19.43-12.73-10.86-6.44-21.8-12.75-32.8-18.95-13.67-7.71-33.4-3.71-41.05,10.76s-3.84,32.81,10.76,41.05h0Z"/>
    <g>
      <path class="cls-3" d="m425.09,416.58c130.23-53.36,423.55-151.4,791.92-81.44,383,72.74,637.12,287.21,742.58,387.54"/>
      <path class="cls-3" d="m812.68,2723.91c-113.82-100.55-277.43-271.44-394.01-516.12-64.44-135.21-97.61-257.49-105.2-286.22-11.26-42.61-45.29-180.42-53.49-347.45-.23-4.65-.39-8.6-.5-11.93-2.51-70.46,4.98-142.1,19.35-282.5,1.03-10.01,2.09-20.45,3.22-31.31h0c6.33-60.88,14.5-135.22,26.79-224.16,1.54-11.17,10.75-77.18,22.78-150.39,28.83-175.47,65.22-339.41,93.47-457.24"/>
      <g>
        <g>
          <path class="cls-10" d="m1163.81,2052.22l363.34-110.13c-12.29,15.56-34.7,41.4-67.79,65.96l-203.47,62.82c-42.93-2.19-75.85-12.73-92.09-18.65Z"/>
          <path d="m1191.42,1880.25c-.28,4.48-9.32,7.43-20.19,6.57-10.87-.86-19.45-5.18-19.16-9.66.28-4.48,9.32-7.44,20.19-6.58,10.86.86,19.45,5.18,19.16,9.67Z"/>
          <path d="m810.26,1797.35c10.46,3.4,18.02,9.66,16.89,13.98s-10.53,5.05-20.98,1.66c-10.45-3.4-18.01-9.65-16.88-13.96,1.13-4.33,10.52-5.06,20.98-1.67Z"/>
        </g>
        <g>
          <path class="cls-3" d="m274.49,1517.08c4.95,27.06,24.41,116.53,93.55,159.76,46.35,28.99,92.62,23.19,170.39,12.21,47.91-6.77,117.41-22.02,197.85-60.14"/>
          <path class="cls-3" d="m865.29,1857.79c-11.78,17.17-26.4,36.15-44.33,55.49-19.97,21.54-39.5,38.61-56.79,51.96"/>
          <path class="cls-3" d="m457.74,1721.5c11.34,32.87,40.83,104.9,108.74,163.84,81.17,70.45,167.03,78.6,197.69,79.9"/>
          <path class="cls-3" d="m865.29,1857.79c15.27,15.56,51.73,48.48,107.56,61.08,63.72,14.39,114.48-6.3,133.21-15.13"/>
          <path class="cls-3" d="m1106.05,1903.73c3.19,20.96,9.13,48.01,20.68,77.8,11.67,30.09,25.45,53.64,37.07,70.69"/>
          <path class="cls-2" d="m893.26,2738.71c153.98-36.44,377.58-119.01,546.7-314.38,76.56-88.44,145.42-204.01,158.17-225.61,84.32-142.81,136.71-277.62,155.54-326.64,1.76-4.57,2.71-7.06,4.19-11.01,24.31-65.11,39.62-135.19,69.9-272.41,4.51-20.42,9.41-42.66,14.59-66.8,4.85-22.55,9.96-46.78,15.25-72.75,14.83-72.83,31.1-159.39,47.14-261.49,20.34-129.55,40.62-286.05,54.85-464.94"/>
          <path class="cls-3" d="m1042.12,2136.88c64.86,15.01,121.36,22.75,166.16,26.92,88.93,8.3,134.32,12.06,179.93-6.64,54.19-22.22,92.2-62.32,130.06-102.25,31.2-32.91,53.88-63.89,68.89-86.32"/>
          <path class="cls-3" d="m1527.15,1942.09c-12.29,15.56-34.7,41.4-67.79,65.96-23.13,17.18-51.49,33.71-85.25,45.65-43.49,15.38-84.03,18.93-118.22,17.17-42.93-2.19-75.85-12.73-92.09-18.65"/>
          <line class="cls-3" x1="1587.16" y1="1968.59" x2="1527.15" y2="1942.09"/>
          <path class="cls-3" d="m765.42,1638.88c-5.55,5.18-37.7,36.3-40.48,89.45-2.95,56.52,29.64,92.93,34.52,98.19"/>
          <path class="cls-3" d="m1260.1,1719.92c22.76,29.69,29.18,70.63,16.49,106-17.24,48.05-60.66,60.62-64.9,61.76"/>
          <path class="cls-3" d="m827.15,1811.32c-1.13,4.32-10.53,5.05-20.98,1.66-10.45-3.4-18.01-9.65-16.88-13.96,1.13-4.33,10.52-5.06,20.98-1.67,10.46,3.4,18.02,9.66,16.89,13.98Z"/>
          <path class="cls-3" d="m1152.07,1877.15c-.28,4.48,8.29,8.81,19.16,9.66,10.86.86,19.9-2.08,20.19-6.57.28-4.49-8.3-8.82-19.16-9.67-10.86-.86-19.9,2.09-20.19,6.58Z"/>
          <path class="cls-3" d="m1042.12,2136.88c-5.25-21.65-13.67-48.68-27.53-77.9-14.28-30.13-30.11-53.65-43.56-70.94-18.29,9.45-41.07,23.44-64.85,44.13-23.85,20.73-41.61,42-54.29,59.5"/>
          <line class="cls-3" x1="393.19" y1="1723.15" x2="457.74" y2="1721.5"/>
          <path class="cls-3" d="m851.89,2091.67c-65.51-11-120.89-25.58-164.21-38.98-85.98-26.6-129.73-40.62-166.67-75.8-43.9-41.78-67.05-94.09-90.1-146.17-19-42.92-30.62-80.75-37.71-107.58"/>
        </g>
      </g>
    </g>
    <path d="m399.63,1735.84c10.42,1.03,20.87,1.57,31.33,1.53,8.69-.03,19.05.78,26.43-4.64,4.78-3.51,3.19-10.77-3.03-11.18-10.88-.72-21.78-.58-32.63.55-7.55.79-16.4,1.38-21.33,8.01-6.03,8.12-1.44,18.88,1.25,27.4,2.98,9.45,6.34,18.78,10.05,27.97,15.55,38.46,38.42,73.26,55.78,110.87,4.44,9.61,8.93,19.24,14.61,28.2,2.68,4.22,5.65,8.25,8.86,12.08,3.1,3.69,7.32,7.61,7.81,12.68,3.01-1.73,6.02-3.45,9.03-5.18-5.47-2.77-8-8.6-10.24-14.02-3.22-7.82-6.24-15.72-9.36-23.58-2.82-7.09-14.43-4-11.57,3.19,3.67,9.24,7.1,18.61,11.1,27.71,3.02,6.88,7.11,13.56,14.02,17.06,3.67,1.86,9.5-.33,9.03-5.18-.83-8.48-5.5-14.3-10.83-20.59-5.69-6.7-10.19-14.29-14.22-22.08-8.43-16.26-15.5-33.15-24.19-49.29-9.31-17.31-19.25-34.28-27.9-51.94-8.34-17.05-15.32-34.73-20.95-52.85-1.1-3.55-4.74-11.02-2.94-14.69,1.53-3.12,7.1-3.19,10.1-3.54,11.47-1.35,23.03-1.52,34.54-.76-1.01-3.73-2.02-7.45-3.03-11.18-6.25,4.59-16.87,3.06-24.18,2.99-9.2-.08-18.38-.62-27.53-1.52-7.68-.76-7.63,11.25,0,12h0Z"/>
    <path d="m430.54,1827.26c.13,9.96,4.88,21.09,10.29,29.33,2.77,4.21,6.01,8.11,8.44,12.54s3.88,8.9,5.48,13.49c3.14,9.01,6.64,16.9,12.86,24.22,3.41,4.02,4.84,8.97,7.85,13.22,3.02,4.25,6.5,8.21,9.78,12.26,4.86,6,13.3-2.53,8.49-8.49-2.92-3.61-6.22-7.1-8.72-11.02-2.48-3.89-3.85-8.21-6.75-11.88s-5.7-6.69-7.77-10.85c-1.93-3.88-3.26-8.03-4.69-12.12-2.95-8.45-6.5-15.98-11.73-23.28-5.48-7.65-11.43-17.74-11.56-27.43-.1-7.72-12.1-7.74-12,0h0Z"/>
    <path d="m450.1,1737.79c2.15,4.89,4.27,9.8,5.93,14.89s2.16,10.57,3.9,15.64c3.23,9.41,11.34,17.72,17.16,25.65,3.14-2.42,6.28-4.85,9.42-7.27-3.86-3.37-4.87-8.46-6.5-13.12-.85-2.41-1.77-4.85-2.98-7.11-1.48-2.75-3.75-4.96-4.48-8.04-1.79-7.51-13.36-4.33-11.57,3.19.91,3.82,3.06,6.47,5.02,9.75,1.51,2.52,2.41,5.26,3.33,8.04,1.92,5.79,3.97,11.64,8.7,15.77,4.78,4.18,13.71-1.44,9.42-7.27-3.07-4.18-6.13-8.36-9.2-12.54-3.17-4.32-6.46-8.22-7.65-13.56-2.36-10.56-5.79-20.18-10.14-30.09-3.1-7.05-13.44-.95-10.36,6.06h0Z"/>
    <path d="m478.47,1795.22c.39,7.06,2.37,14.36,10.02,16.43,4.59,1.24,8.35-2.97,7.38-7.38-.62-2.8-1.9-5-3.8-7.13-4.58-5.12-12.88,1.48-9.42,7.27,3.45,5.77,7.98,10.43,11.83,15.86,1.68,2.37,2.18,5.21,3.37,7.83,1.21,2.66,2.99,4.91,5.1,6.92,1.87,1.79,4.06,3.29,5.55,5.43,1.73,2.49,2.48,5.59,3.65,8.35,2.28,5.41,5.84,10.2,11.8,11.67,5.26,1.29,9.13-4.16,6.78-8.81-1.58-3.12-3.51-5.86-5.74-8.55-4.94-5.95-13.39,2.58-8.49,8.49,1.57,1.89,2.76,3.93,3.87,6.12l6.78-8.81c-4.32-1.06-5.39-9.02-7.11-12.43-2.34-4.64-6.21-7.18-9.59-10.91-3.17-3.48-3.59-8.76-6.48-12.6-3.71-4.92-7.75-9.27-10.93-14.61l-9.42,7.27c.51.48.74,1.09.71,1.83,2.46-2.46,4.92-4.92,7.38-7.38-1.31-.36-1.15-3.83-1.21-4.86-.42-7.68-12.42-7.73-12,0h0Z"/>
    <path d="m524.2,1861.99c12.71,13.26,25.42,26.51,38.12,39.77,3.95,4.12,12.19-.1,10.03-5.84-1.86-4.96-4.87-8.45-8.88-11.85-5.82-4.93-13.94,2.86-8.49,8.49,5.68,5.86,11.58,11.47,17.73,16.83,5.36,4.68,12.09-1.1,9.42-7.27-.7-1.63-1.4-3.25-2.1-4.88-3.14,2.42-6.28,4.85-9.42,7.27,8.73,7.38,17.99,13.96,27.46,20.36,6.41,4.34,12.42-6.05,6.06-10.36-8.61-5.83-17.07-11.77-25.03-18.49-5.4-4.56-12.12,1.03-9.42,7.27.7,1.63,1.4,3.25,2.1,4.88,3.14-2.42,6.28-4.85,9.42-7.27-6.15-5.36-12.05-10.98-17.73-16.83-2.83,2.83-5.66,5.66-8.49,8.49,2.19,1.86,4.75,3.78,5.79,6.56,3.34-1.95,6.69-3.89,10.03-5.84-12.71-13.26-25.42-26.51-38.12-39.77-5.35-5.59-13.83,2.91-8.49,8.49h0Z"/>
    <path d="m599.67,1924.34c6.45,8.97,18.53,13.16,28.19,17.8,10.92,5.25,22.13,9.96,33.85,13.11,7.47,2.01,10.65-9.56,3.19-11.57-10.14-2.73-19.84-6.62-29.32-11.11-4.45-2.11-8.86-4.32-13.25-6.56-4-2.04-9.57-3.93-12.3-7.73-4.47-6.21-14.88-.23-10.36,6.06h0Z"/>
    <path d="m503.05,1955.89c7.7,12.08,16.68,24.62,28.35,33.16,10.99,8.03,24.27,11.75,36.03,18.38,6.44,3.63,12.46,7.93,19.15,11.09,6.57,3.1,13.46,5.45,20.34,7.73,15.41,5.12,30.82,10.23,46.23,15.34,7.35,2.44,10.5-9.15,3.19-11.57-14.18-4.7-28.35-9.41-42.53-14.11-7.12-2.36-14.37-4.56-21.18-7.75-6.17-2.9-11.76-6.79-17.63-10.22-10.98-6.43-23.38-10.07-34.13-16.92-11.6-7.4-20.19-19.76-27.47-31.19-4.14-6.49-14.53-.48-10.36,6.06h0Z"/>
    <path d="m664.36,1958.76c34.25,3.37,65.48,23.11,100.62,19.91,7.7-.7,7.74-11.33,0-12-6.08-.53-12.16-1.05-18.24-1.58-7.69-.67-7.65,11.34,0,12,6.08.53,12.16,1.05,18.24,1.58v-12c-34.76,3.17-66.53-16.55-100.62-19.91-7.68-.76-7.63,11.25,0,12h0Z"/>
    <path d="m657.61,2043.06c18.22,1.94,35.3,10.6,52.66,15.94,17.61,5.42,35.59,9.51,53.68,12.98,17.78,3.42,35.67,6.25,53.54,9.22,4.31.72,8.62,1.44,12.93,2.19,2.46.43,4.92.86,7.38,1.3,1.98.35,5.51,1.8,7.37,1.34,2.43-.61.26,4.18,2.04-3.28,1.06-4.44,1.52-3.44-1.8-3.92-2.06-.3-4.12-.6-6.17-.92-4.42-.67-8.83-1.37-13.23-2.14-19.77-3.46-39.35-8.41-57.14-17.95-6.8-3.65-12.87,6.71-6.06,10.36,17.91,9.61,37.45,15.07,57.36,18.69,4.98.91,9.98,1.71,14.99,2.48,4.43.67,9.43,2.11,13.91,1.98,9.71-.29,9.34-12.99,1.62-16.18-4.33-1.79-9.7-2.05-14.31-2.85-5.23-.91-10.46-1.8-15.7-2.67-10.47-1.74-20.95-3.44-31.42-5.23-21.22-3.63-42.39-7.68-63.18-13.32-11.48-3.12-22.73-6.85-33.9-10.92s-22.54-7.82-34.56-9.1c-7.67-.82-7.61,11.19,0,12h0Z"/>
    <path d="m773.28,1962.18c-5.89.69-11.58,1.27-17.14,3.27s-10.75,4.42-16.09,6.7c2.39-1.01,4.78-2.02,7.17-3.02-3.91,1.64-7.8,3.08-11.99,3.84l7.98-1.07c-2.19.28-4.24.32-6.44.16l7.98,1.07c-9.92-1.49-19.34-6.44-28.9-9.41-10.04-3.11-20.24-5.63-30.48-7.97-19.54-4.46-40.29-7.33-58.9-14.98,2.39,1.01,4.78,2.02,7.17,3.02-2.12-.94-4.21-1.92-6.21-3.08-1.01-.59-1.97-1.25-2.97-1.86-4.97-3.04,3.89,3.4,1.36,1.12-3.36-3.03-6.83-6-10.37-8.81-9.35-7.46-19.69-12.88-29.47-19.66-3.11-2.16,4.68,3.91,1.83,1.39-.89-.79-1.85-1.53-2.76-2.31-1.83-1.56-3.63-3.16-5.42-4.77-4.02-3.62-8.01-7.27-12.01-10.91-8.18-7.43-16.36-14.87-24.53-22.3-11.61-10.56-31.11-12.33-42.43,0-10.56,11.51-12.4,31.15,0,42.43,14.16,12.87,28.02,26.22,42.65,38.56,8.61,7.26,17.53,13.29,27.2,18.96,1.74,1.02,3.41,2.16,5.14,3.2,1.79,1.08,3.5,3.48-1.96-1.64.61.58,1.32,1.08,1.96,1.63,4.24,3.58,8.37,7.2,12.76,10.6,16.73,12.92,37.25,17.51,57.48,22.05,18.38,4.12,36.9,7.83,54.9,13.47,10.74,3.37,20.78,8.16,32,9.67,15.45,2.08,28.15-3.56,42-9.46-2.39,1.01-4.78,2.02-7.17,3.02,3.94-1.64,7.87-3.06,12.08-3.79l-7.98,1.07,1.56-.18c8.22-.97,15.13-2.71,21.21-8.79,5.2-5.2,9.12-13.74,8.79-21.21s-2.9-15.81-8.79-21.21c-5.47-5.02-13.49-9.69-21.21-8.79h0Z"/>
    <path d="m405.82,1753.37c3.86,33.72,15.92,65.2,28.97,96.32,12.23,29.19,25.23,57.36,44.87,82.38,9.38,11.94,20.33,22.02,32.87,30.62,5.78,3.96,11.98,7.25,17.75,11.22l1.44,1c2.53,1.86,1.9,1.37-1.88-1.47.32.96,3.21,2.86,3.99,3.59,3.05,2.88,5.92,5.94,9.07,8.71,12.72,11.19,27.71,18.19,42.98,25.15,15.78,7.2,31.85,13.87,48.14,19.84,32.13,11.76,65.29,20.56,99,26.34,8.15,1.4,15.73,1.3,23.12-3.02,6.22-3.64,12.16-10.78,13.79-17.93,3.31-14.55-4.41-34.07-20.95-36.9-42.84-7.35-84.66-19.65-124.74-36.47,2.39,1.01,4.78,2.02,7.17,3.02-9.09-3.85-18.09-7.9-26.98-12.2-4.42-2.14-8.87-4.27-13.16-6.65-2.15-1.19-4.19-2.54-6.28-3.82-2.6-1.86-2.03-1.4,1.7,1.38-.91-.77-1.8-1.56-2.68-2.37-8.51-7.82-16.55-15.64-26.36-21.95-3.92-2.52-7.98-4.83-11.91-7.35-1.85-1.19-3.64-2.46-5.45-3.72-4.59-3.18,5.9,4.84.6.39-6.22-5.22-11.64-11.14-16.84-17.36-1.92-2.41-1.33-1.64,1.76,2.32-.64-.85-1.27-1.7-1.9-2.56-1.26-1.73-2.48-3.48-3.68-5.26-2.41-3.58-4.7-7.25-6.89-10.98-9.22-15.68-16.66-32.35-23.72-49.08l3.02,7.17c-11.35-27.08-23.26-55.38-27.44-84.62l1.07,7.98c-.17-1.24-.32-2.48-.45-3.73-.94-8.21-2.72-15.15-8.79-21.21-5.2-5.2-13.74-9.12-21.21-8.79s-15.81,2.9-21.21,8.79c-5.03,5.48-9.67,13.48-8.79,21.21h0Z"/>
    <path d="m547.37,1984.88c15.69,0,30.73-13.8,30-30s-13.18-30-30-30c-15.69,0-30.73,13.8-30,30s13.18,30,30,30h0Z"/>
    <path d="m502.87,1896.64c15.69,0,30.73-13.8,30-30s-13.18-30-30-30c-15.69,0-30.73,13.8-30,30s13.18,30,30,30h0Z"/>
    <path d="m479.26,1863.91c15.69,0,30.73-13.8,30-30-.73-16.25-13.18-30-30-30-15.69,0-30.73,13.8-30,30,.73,16.25,13.18,30,30,30h0Z"/>
    <path d="m466.03,1838.97c15.69,0,30.73-13.8,30-30s-13.18-30-30-30c-15.69,0-30.73,13.8-30,30,.73,16.25,13.18,30,30,30h0Z"/>
    <path d="m418.88,1761.02c9.42,0,18.44-8.28,18-18s-7.91-18-18-18c-9.42,0-18.44,8.28-18,18,.44,9.75,7.91,18,18,18h0Z"/>
    <path d="m1000.2,1971.32c.26-1.64.56-3.25.99-4.85l.47-1.58c1.57-4.03.08-2.41-4.47,4.87-3.03.82-6.06,1.64-9.08,2.46,1.64-.09,1.43-.25-.09-.25,2.19,0,4.5.63,6.67.9,2.83.35,5.68.6,8.52.77,5.38.33,10.78.39,16.17.43,12.45.09,23.42-1.28,34.76-6.66,1.11-.53,2.22-.86.43-.26,1.14-.38,2.27-.76,3.44-1.06,2.32-.6,4.69-.95,7.06-1.3,4.87-.73,9.65-1.44,14.34-2.98,11.48-3.76,21.42-9.82,30.47-17.76,7.1-6.23,6.84-19.17,0-25.46-7.57-6.95-17.88-6.64-25.46,0-.3.26-3.7,3.03-2.16,1.87,1.44-1.08-2.45,1.62-2.35,1.56-2.13,1.38-4.49,2.39-6.62,3.74-2.3,1.46,3.48-1.15-1.09.51-1.05.38-2.09.75-3.16,1.08-2.69.84-5.43,1.46-8.21,1.93-5.62.96-11.26,1.41-16.63,3.47-3.34,1.28-6.51,2.93-9.8,4.31,3.5-1.46-6.63,1.18-2.62.72-11.15,1.28-23.12.4-34.27-.59-1.28-.15-1.26-.13.06.07l-1.88-.29c-2.27-.31-4.6-.8-6.9-.78-5.43.03-10.71,2.22-14.67,5.89-5.17,4.79-7.55,12.89-8.64,19.67-1.49,9.26,2.38,19.82,12.57,22.14,8.64,1.97,20.55-2.63,22.14-12.57h0Z"/>
    <path d="m1022.53,1963.92c9.42,0,18.44-8.28,18-18-.44-9.75-7.91-18-18-18-9.42,0-18.44,8.28-18,18,.44,9.75,7.91,18,18,18h0Z"/>
    <path d="m1016.95,1963.84c9.42,0,18.44-8.28,18-18-.44-9.75-7.91-18-18-18-9.42,0-18.44,8.28-18,18,.44,9.75,7.91,18,18,18h0Z"/>
    <path d="m1035.94,1964.52c9.42,0,18.44-8.28,18-18-.44-9.75-7.91-18-18-18-9.42,0-18.44,8.28-18,18,.44,9.75,7.91,18,18,18h0Z"/>
    <path d="m979.65,1990.48c3.35,3.75,6.68,9.91,8.29,15.65,2.73,9.7,5.47,18.09,12.57,25.57,1.06,1.12,2.22,2.14,3.29,3.26.71.72,1.39,1.47,2.04,2.26-1.3-1.68-1.37-1.69-.22-.02.72,1.32,1.47,2.61,2.17,3.93.85,1.86.86,1.82.01-.12.38.96.73,1.92,1.07,2.89,2.43,6.97,3.96,14.21,6.21,21.23,2.61,8.15,6.29,15.92,10.26,23.49,1.76,3.36,3.57,6.71,5.22,10.12.32.66,2.77,6.73,1.45,3.07.55,1.51,1.11,3.01,1.59,4.55.64,2.07,1.02,4.17,1.52,6.27-.85-3.63,0,.57.06,1.25.57,5.51,1.24,10.76,4.07,15.65,6.28,10.84,18.77,12.72,29.79,15.81,9.06,2.54,19.99-3.12,22.14-12.57,2.18-9.55-2.87-19.42-12.57-22.14-4.38-1.23-8.81-2.82-13.27-3.72-3.98-1.38-2.31.11,5,4.46.93,2.33,1.12,2.5.58.53.62,3.01.22,1.21,0-.8-1.06-9.95-3.77-18.49-7.89-27.59-2.91-6.43-6.47-12.53-9.58-18.86-.3-.61-2.95-6.69-1.53-3.13-.58-1.47-1.13-2.96-1.63-4.46-1.18-3.5-2.14-7.07-3.12-10.63-2.14-7.82-4.49-15.42-7.96-22.78-3.45-7.31-8.94-12.66-14.29-18.53,1.17,1.64,1.2,1.59.1-.12q-.92-1.85-.02.01c-.47-1.52-.91-3.04-1.32-4.58-1-3.73-2.01-7.35-3.45-10.94-3.66-9.17-8.52-17.07-15.12-24.46-6.29-7.04-19.13-6.89-25.46,0-6.9,7.52-6.71,17.95,0,25.46h0Z"/>
    <path d="m1081.55,2145.22c17.44,5.26,36.02,10.07,54.26,11.34,11.58.81,21.76-4.69,28-14.33,1.65-2.55,2.82-5.34,4.29-7.99.84-1.52,1.81-2.94,2.8-4.37-2.32,3.34.85-1,1.38-1.66,5.65-6.99,10.94-14.02,12.68-23.07,2.17-11.33-.7-22.04-5.79-32.17-4.48-8.91-9.99-16.91-18.91-21.75-1.4-.76-2.72-1.57-4.08-2.38-1.68-1.19-1.74-1.19-.2,0-.83-.68-1.63-1.38-2.42-2.11-1.19-1.11-2.25-2.32-3.38-3.49-1.33-1.59-1.4-1.66-.23-.2-.64-.9-1.25-1.81-1.83-2.75-5.09-7.91-16.21-11.88-24.63-6.46-7.9,5.1-11.91,16.16-6.46,24.63,4.07,6.31,8.84,12.16,14.74,16.83,3.08,2.43,6.17,4.79,9.62,6.66,1.25.68,5.72,3.99,2.09.41s-.51.06.18,1.15c1.89,2.98,3.72,6.03,5.2,9.24-1.33-2.88.57,2.05.64,2.25,1.41,4.31.24-2.52.34,1.96-.02.57-.03,1.14-.05,1.7.25-1.86.16-1.82-.28.1-.44-.63,1.44-2.65-.31.42-.74,1.29-1.61,2.47-2.44,3.7-.76,1.03-.58.8.53-.7-.47.58-.95,1.16-1.42,1.75-4.31,5.32-7.97,10.48-11.1,16.53-.39.75-2.17,3.01-2.05,3.61-.29-1.5,3.6-2.84,4.36-3.26,1.76-.97,2.1-.07-.5-.2-.77-.03-1.55-.1-2.31-.2,1.7.22,1.84.22.44.02-14.72-2.8-29.21-5.58-43.59-9.92-9.01-2.72-20.02,3.25-22.14,12.57-2.21,9.7,2.92,19.23,12.57,22.14h0Z"/>
    <path d="m1081.55,1951.65c1.35,12.81,4.27,24.46,9.52,36.23,1.06,2.38,2.21,4.71,3.48,6.98.64,1.15,1.27,2.33,2.01,3.43,1.23,1.83.13.78-.02-.53.69,6.09,3.29,12,5.93,17.45,10.22,21.07,21.86,41.56,33.65,61.77,4.75,8.13,16.46,11.72,24.63,6.46,8.2-5.29,11.54-15.92,6.46-24.63-11.22-19.22-21.93-38.73-32.04-58.56-.54-1.05-1-2.22-1.62-3.22-1.39-2.23.49,1.98-.29-.54-.72-2.32-1.13-4.61-1.69-6.97-1.25-5.26-4.28-9.65-6.78-14.35-.54-1.02-1.06-2.05-1.56-3.09-.13-.28-1.48-3.34-.86-1.83.74,1.8-.85-2.37-.98-2.74-.38-1.11-.75-2.22-1.09-3.34-.68-2.25-1.28-4.52-1.78-6.82-.31-1.44-.51-2.9-.83-4.34-.68-3.07.41,4.11-.17-1.36-.98-9.33-7.57-18.47-18-18-8.91.4-19.06,7.97-18,18h0Z"/>
    <path d="m1098.12,1966.03c9.42,0,18.44-8.28,18-18-.44-9.75-7.91-18-18-18-9.42,0-18.44,8.28-18,18,.44,9.75,7.91,18,18,18h0Z"/>
    <path d="m996.85,1967.11c4.17,11.38,11,21.41,16.86,31.95,5.19,9.33,10.17,18.79,15.14,28.24,2.37,4.52,4.76,9.04,7.04,13.61,1.2,2.41,2.38,4.83,3.52,7.27.5,1.09.99,2.18,1.48,3.27,1.5,3.35-.43-1.43.96,2.34,3.38,9.16,5.62,18.54,8.41,27.88,3.41,11.38,8.28,21.96,16.27,30.86,6.42,7.16,14.93,12.77,23.62,16.8,10.79,5.02,21.82,9.05,33.72,10.28s28.28-2.01,35.5-13.07c5.79-8.86,2.41-17.98-3.2-25.53-.63-.85-1.27-1.7-1.86-2.58-.29-.43-2.59-4.8-1.18-1.28-.4-.99-.78-2.26-.93-3.34.43,3.2.21-2.58.21-2.65.17-13.69-1.66-30.21-15.84-36.87-10.25-4.81-23.29-1.3-26.44,10.76-4.21,16.09.16,41.11,19.98,43.77.28.04,4.46.76,5.07.13l-5.38-1.57c-1.62-1.45-1.95-1.7-1-.76,1.28,1.33-1.3-2.48.19.44,2.23,4.39-1.24-3.49.59,1.05,2.8,6.95,5.43,13.67,11.07,18.89,6.91,6.4,18.71,7.35,25.46,0,6.63-7.23,7.07-18.29,0-25.46-6.47-6.56-14.69-10.27-23.53-12.47-3.15-.79-6.35-1.41-9.47-2.31-.74-.21-5.68-2.21-2.42-.67-1.5-.71-2.97-1.48-4.4-2.33-1.7-1-3.28-2.14-4.91-3.24-1.01-.74-.91-.66.28.22-.88-.72-1.75-1.46-2.6-2.21-2.8-2.48-5.51-5.1-7.99-7.89-.59-.65-1.16-1.31-1.71-1.99,1.03,1.32.93,1.12-.31-.62-.9-1.54-1.77-3.03-2.59-4.62-.9-1.94-.99-2.14-.29-.59-.32-.83-.63-1.67-.92-2.52-.69-1.97-1.32-3.97-1.94-5.97-2.44-7.85-4.69-15.76-6.61-23.75-1.04-4.31-1.98-8.65-2.8-13.01-.35-1.87-.68-3.74-.99-5.61-.2-1.25-.4-2.5-.58-3.76.21,1.65.18,1.36-.09-.87-.85-8.13-1.24-16.2-1.1-24.37.15-9.03.08-18.43-3.09-27-6.3-17.02-28.41-17.05-34.71,0-3.78,10.2-7.55,20.41-11.33,30.61h34.71c-1.72-4.97-3.44-9.95-5.15-14.92-2.95-8.54-10.55-14.13-19.75-12.89-9.6,1.29-14.41,8.64-15.61,17.68-.67,5.05-.02,10.05,1.08,15.01,2.8,12.59,21.46,18.19,30.08,7.94,5.94-7.07,7.65-14.08,6.08-23.11-1.29-7.41-10.06-13.54-17.36-13.21-8.21.37-14.8,5.39-17.36,13.21-4.16,12.73-7.61,32.17,1.24,43.63,4.41,5.71,10.99,8.42,16.82,12.39,1.22.83,2.42,1.7,3.62,2.57,4.65,3.37-2.46-2.09,2.01,1.55,2.32,1.89,4.61,3.82,6.88,5.77,4.27,3.69,8.67,7.35,12.63,11.39.28.29,3.21,3.43,1.8,1.8s1.25,1.87,1.49,2.26c1.5,2.44,2.76,5.01,3.98,7.59,5.38,11.32,11.58,21.9,18.4,32.42,4.91,7.57,14.02,10.94,22.48,7.36,7.41-3.13,13.88-12.94,10.42-21.23-8.34-20.01-13.43-41.1-17.33-62.37-1.79-9.75-2.85-19.75-5.25-29.38-2.98-11.96-8.73-21.35-18.56-28.79-7.54-5.71-20.45-1.44-24.63,6.46-5.01,9.48-1.59,18.54,6.46,24.63-1.06-.8-2.12-1.56-.59-.13-.97-.91-1.41-2.25-.34-.39.46.81.92,1.61,1.37,2.44.98,1.8.23,1.04-.12-.34,1,3.89,2.22,7.63,2.95,11.6,1.76,9.62,3.16,19.29,5.02,28.9,3.76,19.43,8.69,38.64,16.31,56.94,10.97-4.62,21.93-9.25,32.9-13.87-6.16-9.49-12.12-19.03-16.94-29.28-5.06-10.77-11.31-19.58-20.23-27.52-8.93-7.94-18.02-15.87-28.02-22.45-2.11-1.39-4.99-3.73-7.44-4.46-1.77-1.1-1.13-.16,1.9,2.82,1.91,1.33,2.87,3.09,2.89,5.26-.36-.3-.06-3.06-.06-3.57.02-1.49.23-2.98.22-4.46-.02-2.88-.83,3.64.19-1.4.59-2.91,1.33-5.75,2.25-8.57h-34.71c1.06-3.97,2.12-7.95,3.18-11.92,10.03,2.65,20.06,5.3,30.08,7.94-.68-3.08-.51.59-.12-1.16.29-1.28.15-2.97.32-4.28-11.79,1.6-23.57,3.19-35.36,4.79,1.72,4.97,3.44,9.95,5.15,14.92,2.51,7.26,9.16,13.58,17.36,13.21,8.43-.38,14.48-5.45,17.36-13.21,3.78-10.2,7.55-20.41,11.33-30.61h-34.71c.8,2.15,1.43,4.29,1.82,6.56-.62-3.62-.02,1.3,0,2.09.16,4.09-.04,8.18-.07,12.27-.07,9.88.9,19.66,2.27,29.43,2.45,17.46,6.83,34.68,12.32,51.42,3.27,9.95,7.53,18.7,14.22,26.78,5.72,6.9,12.69,12.85,20,18,6.97,4.91,15,8.31,23.26,10.31,3.15.77,6.34,1.4,9.45,2.34.71.2,1.41.43,2.11.68-2.02-.94-2.12-.97-.28-.08.86.45,1.69.95,2.49,1.51-1.69-1.32-1.78-1.27-.27.14,8.49-8.49,16.97-16.97,25.46-25.46-1.4-1.41-1.37-1.23.09.55-.52-.79-.99-1.61-1.41-2.46-1.93-3.2,1.03,2.75-.49-1.09-1.56-3.94-3.04-7.98-5.4-11.52-2.87-4.3-6.38-8.14-10.92-10.73-2.07-1.18-4.39-2.07-6.71-2.63,1.32.32-12.1-1.97-5.23-.2,2.65,1.54,5.3,3.09,7.94,4.63.57.5,1.69,4.16,1.18,2.09-.19-.77-1.01-4.37-.55-.73-.14-1.07-.11-2.16-.12-3.24-.06-4.64-.8,2.86.36-1.59-8.81,3.59-17.63,7.17-26.44,10.76,3.13,1.47-3.48-2.14-2.5-4.02.32.9.57,1.82.77,2.76-.24-2.4-.29-2.57-.14-.51-.12,4.36-.32,8.81.05,13.16.53,6.12,1.99,11.73,4.98,17.13,1.03,1.86,2.25,3.57,3.51,5.27.64.84,1.28,1.68,1.93,2.52,1.28,1.87,1.3,1.66.06-.63.6-4.62,1.21-9.25,1.81-13.87l-.61,1.16c2.15-2.15,4.31-4.31,6.46-6.46-.76.66-1.6,1.2-2.52,1.62,1.81-.69,1.72-.7-.25-.03-2.1.44-2.08.52.05.25-1.08.11-2.15.16-3.23.17-1.09,0-2.18-.04-3.27-.14,2.04.34,1.99.32-.16-.05-2.2-.5-4.38-.98-6.55-1.63s-4.27-1.39-6.37-2.17c-.73-.27-6.58-2.85-2.72-1.05-3.24-1.51-6.45-3.07-9.5-4.94-.65-.4-5.79-4.14-2.62-1.58-1.6-1.29-3.12-2.67-4.54-4.15-.72-.75-1.41-1.52-2.08-2.31,1.19,1.6,1.18,1.55-.02-.15-1.09-1.87-2.16-3.72-3.19-5.63-1.92-3.57.44,1.84-.72-1.72-.68-2.1-1.43-4.18-2.07-6.29-1.28-4.29-2.36-8.63-3.54-12.94-5.17-18.86-14.2-36.15-23.26-53.37-4.39-8.34-8.8-16.67-13.38-24.9-2.44-4.38-4.92-8.73-7.47-13.05-1.24-2.1-2.54-4.18-3.73-6.32-.6-1.06-1.17-2.13-1.72-3.22-.95-1.94-1.05-2.2-.31-.77-3.23-8.82-12.36-15.74-22.14-12.57-8.66,2.8-16.04,12.68-12.57,22.14h0Z"/>
    <g>
      <path d="m992.04,1032.89c-7.52,2.57-14.81,2.66-22.37.2-7.36-2.39-10.52,9.19-3.19,11.57,9.42,3.06,19.38,3,28.75-.2,7.27-2.48,4.15-14.08-3.19-11.57h0Z"/>
      <path d="m966.28,1036.3c-9.13-3.18-16.93-9.26-22.6-17.07-4.49-6.19-14.91-.21-10.36,6.06,7.62,10.49,17.48,18.3,29.77,22.58,7.31,2.55,10.45-9.04,3.19-11.57h0Z"/>
      <path d="m987.8,1031.88c-3.73-.16-7.45-.33-11.18-.49-5.1-.22-8.05,6.79-4.24,10.24,3.67,3.34,8.1,5.83,13.06,6.56,3.2.47,6.45-.8,7.38-4.19.78-2.83-.97-6.9-4.19-7.38-3.13-.46-5.5-1.41-7.77-3.47-1.41,3.41-2.83,6.83-4.24,10.24,3.73.16,7.45.33,11.18.49,3.24.14,6-2.86,6-6,0-3.37-2.75-5.86-6-6h0Z"/>
      <path d="m973.05,1037.88c-10.5-5.99-21-11.98-31.5-17.97-6.72-3.83-12.77,6.53-6.06,10.36,10.5,5.99,21,11.98,31.5,17.97,6.72,3.83,12.77-6.53,6.06-10.36h0Z"/>
      <path d="m945.01,1031.03c1.92,5.81,4.83,10.93,8.9,15.5l2.65-10.03c1.74.5,1.94.31.59-.58-.59-.51-1.18-1.03-1.77-1.54-.88-.77-1.77-1.54-2.65-2.31-2.06-1.8-4.12-3.59-6.18-5.39-5.8-5.05-14.32,3.4-8.49,8.49,3.24,2.82,6.48,5.65,9.72,8.47,3.39,2.96,7.17,6.16,11.97,4.44,4.34-1.57,5.79-6.51,2.65-10.03-2.65-2.97-4.57-6.43-5.82-10.21-2.42-7.3-14.01-4.17-11.57,3.19h0Z"/>
      <path class="cls-10" d="m898.98,1002.65c-4.93-.83-9.63-2.21-14.25-4.13,2.39,1.01,4.78,2.02,7.17,3.02-2.3-1.03-4.53-2.14-6.71-3.41-2.05-1.21-8.81-6.3-1.58-.61-6.51-5.13-12.57-8.79-21.21-8.79-7.36,0-16.15,3.27-21.21,8.79-5.25,5.72-9.14,13.22-8.79,21.21.33,7.4,2.69,16.41,8.79,21.21,12.45,9.81,25.95,17.87,41.84,20.56,8.17,1.38,15.72,1.3,23.12-3.02,6.22-3.64,12.16-10.78,13.79-17.93,3.31-14.52-4.41-34.1-20.95-36.9h0Z"/>
      <g>
        <g>
          <path class="cls-7" d="m394.54,834c27.92-23.53,91.31-69.31,174.71-66.83,64.21,1.91,113.62,31.62,153.18,55.46,21.66,13.05,57.43,34.95,95.07,74.99,8.2,8.73,50.66,54.64,108.12,121.48,8.77,10.2,26.86,31.32,51.07,30.75,11.34-.27,20.53-5.21,26.5-9.35"/>
          <path class="cls-6" d="m394.54,834c7.35-19.13,22.41-51.1,51.82-78.89,8.95-8.46,30.92-27.58,74.95-43.15,103.31-36.53,198.51-7.66,229.58,3.26,46.34,16.28,78.61,37.8,99.69,52.05,15.54,10.51,64.54,44.9,112.53,105.45,0,0,32.83,41.42,48.32,90.77,3.96,12.63,7.21,27.15,4.49,44.27-2.39,15.05-8.45,26.21-12.72,32.74"/>
          <path class="cls-4" d="m394.41,834.45c27.95-23.63,91.41-69.63,174.83-67.24,64.23,1.84,113.62,31.59,153.18,55.46,21.66,13.07,57.41,35,95.04,75.12,8.2,8.74,50.62,54.76,108.05,121.74,8.76,10.22,26.84,31.39,51.06,30.79,11.35-.28,20.54-5.25,26.52-9.41"/>
          <path d="m925.55,1018.89c17.47,11.94,34.7,24.72,54.83,31.84,7.29,2.58,10.43-9.01,3.19-11.57-19.02-6.73-35.47-19.36-51.96-30.63-6.39-4.37-12.4,6.03-6.06,10.36h0Z"/>
          <path d="m948.1,1024.97c4.39.16,9.29.18,13.24,2.37,4.51,2.5,7.93,7.73,11.33,11.5,1.95-3.34,3.89-6.69,5.84-10.03-5.91-2.18-10.92-5.69-15.33-10.16l-2.65,10.03c6.05-1.21,12.36,3.3,17.33,6.18,5.78,3.34,11.37,6.98,16.81,10.82,6.32,4.46,12.32-5.94,6.06-10.36-6.92-4.89-14.08-9.47-21.55-13.48-6.98-3.74-13.86-6.33-21.85-4.73-4.54.91-5.64,7-2.65,10.03,5.92,6,12.72,10.34,20.63,13.25,6.01,2.21,9.53-5.94,5.84-10.03-4.55-5.04-8.86-11.03-15.11-14.06-5.58-2.7-11.85-3.11-17.95-3.33-7.72-.28-7.71,11.73,0,12h0Z"/>
        </g>
        <path d="m937.61,1025.46c.15-.05,1.6-.37.95-.29-.57.06.57.03.68.05.44.03.39.03-.12,0l.58.16.57.2c-.41-.16-.43-.14-.06.05,1.17.67,1.64,1.3,2.02,2.49,2.32,7.34,13.91,4.2,11.57-3.19-2.53-8-10.95-13.79-19.38-11.03-3.08,1.01-5.08,4.15-4.19,7.38.83,3.02,4.29,5.2,7.38,4.19h0Z"/>
        <g>
          <path class="cls-10" d="m860.71,1021.98c-16.92-8.03-32.7-18.9-49.91-26.12-7.94-3.34-16.13-5.87-24.31-8.4-46.82-14.5-93.63-28.99-140.45-43.49-23.56-7.3-47.22-14.63-69.57-25.67-31.86-15.74-61.64-39.18-96.21-44.17"/>
          <path class="cls-10" d="m875.85,996.07c-16.12-7.75-31.05-17.8-47.42-25.05-18.97-8.4-38.86-14.02-58.64-20.15-37.64-11.66-75.29-23.31-112.93-34.97-19.84-6.14-39.7-12.27-58.86-20.35,2.39,1.01,4.78,2.02,7.17,3.02-39.12-16.79-73.88-46.81-116.93-53.4-8.27-1.27-15.61-1.37-23.12,3.02-6.22,3.64-12.16,10.78-13.79,17.93-1.75,7.68-1.37,16.3,3.02,23.12,3.95,6.12,10.39,12.63,17.93,13.79,10.44,1.6,20.43,4.75,30.16,8.83-2.39-1.01-4.78-2.02-7.17-3.02,17.76,7.66,34.16,17.95,51.01,27.36,19.41,10.84,39.9,19.54,60.92,26.76,41.5,14.26,83.85,26.31,125.76,39.29,23.25,7.2,47.34,13.23,69.86,22.51-2.39-1.01-4.78-2.02-7.17-3.02,17.31,7.4,32.97,17.98,49.91,26.12,7.37,3.55,14.99,5.26,23.12,3.02,6.96-1.92,14.5-7.3,17.93-13.79,7.09-13.41,4.34-33.78-10.76-41.05h0Z"/>
        </g>
        <path class="cls-10" d="m405.97,892.86c38.17,7.89,76.34,15.77,114.51,23.66,15.33,3.17,33.15-4.45,36.9-20.95,3.42-15-4.52-33.51-20.95-36.9-38.17-7.89-76.34-15.77-114.51-23.66-15.33-3.17-33.15,4.45-36.9,20.95-3.42,15,4.52,33.51,20.95,36.9h0Z"/>
      </g>
      <path d="m933.96,1028.97c4.68.69,7.65,3.11,9.78,7.27l8.21-8.21c-1.81-.99-3.62-1.99-5.43-2.98-5.69-3.12-12.83,5.05-7.27,9.42,1.99,1.57,3.87,2.62,6.29,3.42,2.95.98,2.44.34,3.71,3.01,2.24,4.71,6.23,5.96,10.94,7.17,5.98,1.54,10.69,4.5,17.14,4.03,6.58-.49,12.66-3.3,18.54-6.09,6.06-2.87,2.12-10.5-3.03-11.18-2.31-.3-4.61-.61-6.92-.91-.99-.13-1.98-.26-2.97-.39-1.95-.63-1.92-.13.1,1.51-2.22-7.38-13.81-4.23-11.57,3.19,2.6,8.63,14.15,7.65,21.35,8.61-1.01-3.73-2.02-7.45-3.03-11.18-4.38,2.08-9.27,4.55-14.24,4.54-4.73,0-8.83-3-13.4-3.96-2.24-.47-1.55-.18-2.65-1.84-1.01-1.53-1.43-3.02-2.82-4.36-1.31-1.26-2.89-2.04-4.58-2.67-1.23-.45-3.37-.59-4.39-1.39-2.42,3.14-4.85,6.28-7.27,9.42,1.81.99,3.62,1.99,5.43,2.98,5.41,2.97,10.92-2.9,8.21-8.21-3.38-6.63-9.48-11.68-16.95-12.79-7.55-1.12-10.81,10.44-3.19,11.57h0Z"/>
    </g>
    <g>
      <g>
        <g>
          <path class="cls-7" d="m1844.73,1123.29c-18.85-32.86-64.03-100.3-143.02-130.21-60.82-23.03-116.41-14.27-160.94-7.2-24.38,3.87-64.75,10.58-112.53,33.58-10.41,5.01-64.54,31.66-139.26,72.13-11.4,6.18-34.95,18.99-57.48,9.09-10.56-4.64-17.63-12.82-21.94-19.01"/>
          <path class="cls-6" d="m1844.73,1123.29c-.93-20.79-5.09-56.58-24.01-94.02-5.76-11.39-20.4-37.82-56.84-69.44-85.5-74.2-183.78-83.92-216.32-85.69-48.54-2.64-85.51,5.06-109.72,10.28-17.85,3.85-74.52,17.16-138.4,55.39,0,0-43.7,26.15-73.61,66.45-7.65,10.31-15.22,22.67-18.01,39.78-2.45,15.04-.24,27.85,1.72,35.62"/>
          <path class="cls-4" d="m1844.71,1123.76c-18.85-32.97-64.02-100.64-143-130.64-60.81-23.1-116.41-14.29-160.94-7.2-24.38,3.88-64.75,10.63-112.54,33.72-10.41,5.03-64.54,31.79-139.27,72.41-11.4,6.2-34.95,19.06-57.48,9.13-10.55-4.65-17.63-12.87-21.94-19.08"/>
          <path d="m1286.3,1079.6c-19.15,4.23-38.44,9.45-58.22,8.44-7.72-.39-7.7,11.61,0,12,20.81,1.06,41.26-4.41,61.41-8.87,7.54-1.67,4.35-13.24-3.19-11.57h0Z"/>
          <path d="m1269.53,1076.98c-6.07-2.25-12.36-4.26-18.91-3.35-6.3.88-12.03,4.64-17.61,7.48s-2.59,10.97,3.03,11.18c8.3.31,15.99-1.46,23.54-4.85,4.4-1.97,3.38-8.12,0-10.36-6.17-4.09-13.33-4.36-20.47-3.61-8.76.93-17.44,2.49-26,4.53-7.51,1.79-4.33,13.36,3.19,11.57,6.9-1.64,13.88-3.02,20.92-3.88,5.58-.68,11.38-1.51,16.31,1.75v-10.36c-5.58,2.5-11.4,3.44-17.48,3.21,1.01,3.73,2.02,7.45,3.03,11.18,4.02-2.04,8.5-5.26,13-6.02,4.77-.8,9.9,1.48,14.27,3.1,7.25,2.69,10.38-8.9,3.19-11.57h0Z"/>
        </g>
        <path d="m1283.29,1083.86c-7.42-6.1-17.12-4.56-22.81,2.99-1.95,2.59-.41,6.71,2.15,8.21,3.07,1.8,6.25.44,8.21-2.15.33-.44,1.32-.88,1.99-.97-.5.07,1.91.25.98.04.43.1.91.3.99.36,2.5,2.06,6.04,2.45,8.49,0,2.12-2.12,2.52-6.42,0-8.49h0Z"/>
        <g>
          <path class="cls-10" d="m1348.96,1119.38c18.37-.99,36.56-5.08,54.95-5.21,8.49-.06,16.96.73,25.42,1.51,48.42,4.5,96.85,9,145.27,13.5,24.37,2.27,48.84,4.53,73.25,2.82,34.79-2.44,70.02-12.91,103.99-4.23"/>
          <path class="cls-10" d="m1348.96,1149.38c21.67-1.29,42.93-6.12,64.73-4.95,22.15,1.2,44.29,3.92,66.38,5.97,22.22,2.07,44.44,4.13,66.67,6.2,22.45,2.09,44.91,4.62,67.44,5.64,26.73,1.21,52.58-2.16,79.01-5.75l-7.98,1.07c17.86-2.39,35.84-4.31,53.83-2.19-2.66-.36-5.32-.71-7.98-1.07,4.32.58,8.56,1.37,12.8,2.41,15.22,3.73,33.24-4.85,36.9-20.95,3.53-15.48-4.65-32.9-20.95-36.9-32.04-7.86-63.57-2.78-95.67,1.57l7.98-1.07c-20.65,2.76-41.09,3.82-61.91,2.69-21.53-1.17-43.01-3.54-64.48-5.53-42.36-3.94-84.73-8.59-127.16-11.75-23.55-1.76-46.23,3.23-69.62,4.62-15.64.93-30.76,13.13-30,30,.69,15.45,13.22,31,30,30h0Z"/>
        </g>
        <path class="cls-10" d="m1825.18,1114.93c-38.25-7.36-76.51-14.72-114.76-22.08-8.02-1.54-15.87-1.22-23.12,3.02-6.22,3.64-12.16,10.78-13.79,17.93-3.37,14.82,4.47,33.73,20.95,36.9,38.25,7.36,76.51,14.72,114.76,22.08,8.02,1.54,15.87,1.22,23.12-3.02,6.22-3.64,12.16-10.78,13.79-17.93,3.37-14.82-4.47-33.73-20.95-36.9h0Z"/>
      </g>
      <path d="m1222.39,1093.13c7.72,0,7.73-12,0-12s-7.73,12,0,12h0Z"/>
      <path d="m1231.69,1093.25c7.72,0,7.73-12,0-12s-7.73,12,0,12h0Z"/>
      <path d="m1239.89,1102.27c6.86-.7,13.71-1.04,20.33-3.06,3.21-.98,6.16-1.29,9.49-1.27,3.09.01,4.99-.67,7.84-1.63-1.54-.2-3.08-.4-4.62-.6l.97.45c.48-3.66.96-7.31,1.43-10.97-2.89.44-6.06.63-8.62,2.23-.97.61-1.82,1.45-2.54,2.33-.44.53-.83,1.1-1.16,1.71-.24-.71-.69-.84-1.35-.4-6.86,1.77-14.14,1.66-21.11.73-3.24-.43-5.97,3.07-6,6-.04,3.59,2.8,5.58,6,6,7.24.96,14.43.74,21.61-.59,3.18-.59,7.01-1.21,9.5-3.47.67-.6,1.05-1.73,1.76-2.19,1.03-.68,3.87-.59,5.1-.78,4.96-.76,5.95-8.9,1.43-10.97-3.46-1.58-4.77-.8-8.23-.04-3.05.67-6.49.18-9.66.7-3.44.56-6.62,1.95-10.04,2.54-3.98.68-8.12.87-12.13,1.28-7.61.78-7.69,12.78,0,12h0Z"/>
    </g>
    <path d="m1526.27,1953.53c17.28,6.39,34.19,13.64,50.74,21.72v-10.36c-4.73,2.06-13.03,4.53-15.47,9.45s2.03,11.62,7.8,9.6c7.24-2.53,4.13-14.13-3.19-11.57l-.45.16c1.95.51,3.89,1.03,5.84,1.54.32.57.64,1.13.96,1.7-.2,1.54-.4,3.08-.6,4.62-.77,1.33-1.08.79.52.04,1.27-.6,2.49-1.34,3.75-1.97,2.26-1.14,4.57-2.2,6.89-3.21,4.05-1.77,3.79-8.51,0-10.36-17.48-8.53-35.37-16.19-53.61-22.93-7.25-2.68-10.38,8.91-3.19,11.57h0Z"/>
    <path d="m1572,1971.94c-5.81,4.83-12.95,5.64-16.52,13.14-2.59,5.44,2.67,11,8.21,8.21,2.05-1.04,4.06-1.57,6.32-1.95-2.46-2.46-4.92-4.92-7.38-7.38-1.26,3.43-3.63,3.85-6.5,5.43-2.48,1.37-4.09,3.47-5.61,5.79-4.03,6.14-7.75,12.53-11.61,18.78-4.07,6.59,6.3,12.62,10.36,6.06,2.1-3.39,4.19-6.78,6.29-10.17,1.68-2.71,3.54-7.5,5.97-9.63,2.02-1.78,4.97-2.28,7.06-4.17,2.72-2.46,4.36-5.49,5.61-8.9,1.73-4.72-3.32-8.07-7.38-7.38-3.28.55-6.23,1.67-9.19,3.16,2.74,2.74,5.47,5.47,8.21,8.21,2.56-5.37,10.21-7.02,14.64-10.71,5.94-4.94-2.59-13.39-8.49-8.49h0Z"/>
    <path d="m1559.45,2005.94c7.72,0,7.73-12,0-12s-7.73,12,0,12h0Z"/>
    <path d="m1533.61,2019.22c-.46,5.7-9.41,9.46-13.25,12.88-4.98,4.43-9.12,9.68-13.48,14.69-4.21,4.84-8.71,8.89-13.66,12.93s-6.62,9.88-11.04,13.97c3.14,2.42,6.28,4.85,9.42,7.27,3.02-4.19,6.93-7.2,11.59-9.38,6.99-3.26.91-13.61-6.06-10.36-6.58,3.07-11.67,7.83-15.89,13.68-4.13,5.73,4.62,11.7,9.42,7.27,2.48-2.29,4.23-5.07,5.97-7.93,1.93-3.16,3.95-5.13,6.86-7.41,5.67-4.46,10.34-9.75,15.02-15.22,4.68-5.47,9.4-10.65,15.29-14.83,6.42-4.54,11.15-9.37,11.81-17.57.62-7.7-11.38-7.66-12,0h0Z"/>
    <path d="m1520.32,2046.55c7.72,0,7.73-12,0-12s-7.73,12,0,12h0Z"/>
    <path d="m1519.37,2050.51c7.72,0,7.73-12,0-12s-7.73,12,0,12h0Z"/>
    <path d="m1522.53,2046.3c7.72,0,7.73-12,0-12s-7.73,12,0,12h0Z"/>
    <path d="m1480.13,2077.36c-9.14,7.59-18.25,15.22-27.42,22.77-6.3,5.18-15.88,7.93-19.27,15.92-1.87,4.4,1.26,10.58,6.78,8.81,4.6-1.47,9.06-3.24,13.46-5.23,7.03-3.18.93-13.52-6.06-10.36-3.46,1.56-6.98,2.87-10.59,4.02,2.26,2.94,4.52,5.88,6.78,8.81,1.5-3.53,4.58-4.74,7.78-6.56,4.04-2.29,7.57-5.24,11.14-8.2,8.63-7.17,17.26-14.34,25.89-21.51,5.95-4.94-2.58-13.39-8.49-8.49h0Z"/>
    <path d="m1442.29,2112.15c-1.47,3.19-4.84,3.24-7.93,4.02-3.81.96-7.09,2.46-9.92,5.23s-1.96,9.38,2.65,10.03c1.41.2,2.81.39,4.22.59-.48-3.66-.96-7.31-1.43-10.97-9.21,4.61-18.4,9.28-27.65,13.83-8.76,4.31-18.65,8.91-28.68,7.26-7.55-1.25-10.8,10.32-3.19,11.57,11.72,1.93,22.36-1.25,32.97-6.1,11.02-5.04,21.76-10.77,32.6-16.2,4.31-2.16,3.7-10.25-1.43-10.97-1.41-.2-2.81-.39-4.22-.59.88,3.34,1.77,6.69,2.65,10.03,2.71-2.65,7.45-2.51,10.89-3.87,3.82-1.52,7.09-4.01,8.83-7.81,3.2-6.97-7.14-13.07-10.36-6.06h0Z"/>
    <path d="m1183.6,2161.43c11.5.52,23,1.04,34.46,2.17s23.23,3.86,34.95,4.76c5.82.45,11.61-.43,17.41-.09,5.46.32,10.69,1.76,16.21,1.68,11.17-.17,22.04-3.4,33.26-2.16v-12c-4.23.42-8.45.84-12.68,1.25-7.56.75-7.86,11.75,0,12,10.91.35,21.79,0,32.65-1.06,7.62-.74,7.69-12.75,0-12-10.86,1.05-21.74,1.41-32.65,1.06v12c4.23-.42,8.45-.84,12.68-1.25,7.74-.76,7.68-11.15,0-12-10.93-1.21-21.5,1.82-32.37,2.15-5.5.16-10.69-1.19-16.13-1.61-6.13-.47-12.25.52-18.4.04-11.39-.88-22.62-3.51-33.99-4.67s-23.6-1.73-35.42-2.27c-7.72-.35-7.7,11.65,0,12h0Z"/>
    <path d="m1339.77,2167.73c11.15-1.4,22.78-2.05,33.6-5.28,10.5-3.13,19.92-8.45,28.51-15.19,6.07-4.76-2.47-13.2-8.49-8.49-7.36,5.77-15.83,10.11-24.85,12.57-9.33,2.54-19.2,3.18-28.77,4.38-7.56.95-7.66,12.96,0,12h0Z"/>
    <path d="m1395.25,2138.78c-.23.19-.47.38-.7.56.62-.48.67-.52.14-.12-.49.34-.97.7-1.47,1.03-.99.66-2,1.27-3.04,1.85-2.75,1.52-3.88,5.53-2.15,8.21,1.79,2.78,5.27,3.78,8.21,2.15,2.68-1.49,5.13-3.27,7.5-5.19s2.22-6.45,0-8.49c-2.6-2.39-5.87-2.12-8.49,0h0Z"/>
    <path d="m1521.51,1948.53c-6.06,7.21-11.76,15.5-18.84,21.75-3.13,2.76-6.86,4.75-9.81,7.74-3.5,3.53-6.48,7.53-10.01,11.05-6.74,6.71-13.58,14.08-21.08,19.94-7.35,5.74-17.09,9.16-25.43,13.24-6.94,3.39-.86,13.74,6.06,10.36,8.4-4.11,17.77-7.6,25.35-13.14,8.05-5.88,15.13-13.65,22.26-20.6,3.44-3.36,6.55-6.94,9.71-10.56,3-3.43,6.76-5.64,10.25-8.51,7.68-6.34,13.67-15.18,20.04-22.77,4.94-5.88-3.51-14.41-8.49-8.49h0Z"/>
    <path d="m1469.68,2003.32c-5.91,2.01-11.2,6.31-16.44,9.64-6.5,4.14-.48,14.53,6.06,10.36,2.33-1.48,4.66-2.97,6.99-4.45,2.06-1.31,4.26-3.19,6.58-3.98,7.27-2.47,4.15-14.06-3.19-11.57h0Z"/>
    <path d="m1431.6,2027.1c-27.24,14.51-54.61,28.68-85.08,34.97-31.48,6.5-63.95,11.06-96.14,10.96-18.24-.06-36.34-1.88-54.11-6.07-7.51-1.77-10.72,9.8-3.19,11.57,32.56,7.69,66.15,7.72,99.26,4.06,32.48-3.59,65.66-8.39,96.01-20.97,16.94-7.02,33.14-15.57,49.31-24.18,6.82-3.63.76-13.99-6.06-10.36h0Z"/>
    <path d="m1249.07,2071.64c-7.44-.47-14.88-.22-22.33-.28-3.7-.03-7.42-.11-11.1-.49-1.67-.17-9.55-2.26-10-.87-1.93,1.47-3.86,2.94-5.79,4.4,10.09.48,20.02,1.78,29.9,3.9,7.53,1.62,10.75-9.94,3.19-11.57-10.9-2.35-21.95-3.8-33.09-4.33-2.7-.13-5,1.97-5.79,4.4-6.99,21.77,44.39,16.15,55,16.82,7.71.49,7.68-11.51,0-12h0Z"/>
    <path d="m1163,2064.83c10.52,2.99,21.04,5.99,31.56,8.98v-11.57c-3.62.82-7.21,1.67-10.67,3.02-2.17.85-6.61,3.92-9.09,2.86-1.01,3.73-2.02,7.45-3.03,11.18,8.34.36,16.55,1.38,24.72,3.09,7.53,1.58,10.76-9.98,3.19-11.57-9.2-1.93-18.52-3.12-27.91-3.52-5.63-.24-8.61,8.81-3.03,11.18,4.52,1.92,8.67,2.14,13.33.49,5.28-1.87,10.16-3.92,15.68-5.16,5.92-1.34,5.5-10.01,0-11.57-10.52-2.99-21.04-5.99-31.56-8.98-7.44-2.12-10.62,9.46-3.19,11.57h0Z"/>
    <path d="m1147.48,2155.92c6.32-.41,12.23,1.52,18.49,1.45s13.01-1.05,19.45-1.63c-1.01-3.73-2.02-7.45-3.03-11.18-4.18,1.99-8.47,2.82-13.08,2.78-7.72-.07-7.73,11.93,0,12,6.79.06,13.03-1.51,19.14-4.42,5.27-2.51,2.82-11.71-3.03-11.18-6.44.58-12.98,1.54-19.45,1.63s-12.17-1.87-18.49-1.45c-7.67.5-7.72,12.51,0,12h0Z"/>
    <path d="m1481.1,1993.94c-13.34,6.23-25.4,13.09-36.78,22.57-9.39,7.82-16.53,17.83-26.18,25.41,2.43-1.88,4.86-3.75,7.29-5.63-9.08,6.9-19.03,12.46-28.92,18.07-10.61,6.02-21.32,11.86-32.56,16.62l8.6-3.63c-19.25,7.89-39.73,11.55-60.22,14.6-21.12,3.14-42.25,6.26-63.41,9.13l9.57-1.29c-14.18,1.86-28.18,2.71-42.42.95,3.19.43,6.38.86,9.57,1.29-15.26-2.09-30.05-6.3-44.8-10.6-18.07-5.26-40.01,6.38-44.28,25.14-4.39,19.26,5.79,38.65,25.14,44.28,23.54,6.85,47.81,13.3,72.53,12.98s49.72-5.59,74.22-9.12c21.7-3.13,43.7-5.66,64.86-11.6,23.14-6.49,44.37-17.91,65.13-29.76,11.77-6.72,22.88-14,33.34-22.7,8.94-7.44,15.72-17.03,24.8-24.31-2.43,1.88-4.86,3.75-7.29,5.63,8.63-6.59,18.35-11.29,28.15-15.86,7.74-3.61,14.36-13.58,16.54-21.51,2.37-8.62,1.3-20.09-3.63-27.74-4.96-7.69-12.34-14.45-21.51-16.54-9.93-2.26-18.54-.67-27.74,3.63h0Z"/>
    <path d="m1159.52,2131.6c18.16,9.26,36.87,11.56,56.95,13.19,16.11,1.31,31.68.63,47.71-1.25,34.78-4.06,69.5-8.73,104.08-14.27,8.35-1.34,17.43-9.57,21.51-16.54,4.52-7.72,6.43-19.09,3.63-27.74-2.82-8.71-8.22-17.12-16.54-21.51-9.08-4.8-17.65-5.24-27.74-3.63-17.67,2.83-35.37,5.41-53.11,7.8,3.19-.43,6.38-.86,9.57-1.29-17.63,2.35-35.31,4.78-53.02,6.45-17.12,1.62-34.26.64-51.3-1.49l9.57,1.29c-6.43-.89-12.68-2.22-18.75-4.56,2.87,1.21,5.73,2.42,8.6,3.63-1.65-.7-3.23-1.44-4.83-2.25-8.63-4.4-18.2-6.26-27.74-3.63-8.35,2.3-17.4,8.76-21.51,16.54-8.68,16.43-5,40.13,12.92,49.25h0Z"/>
    <path d="m1308.48,2168.87c21.77-5.13,43.57-10.16,65.32-15.41,23.39-5.65,44.58-18.97,65.75-30.04,16.71-8.74,23.11-33.44,12.92-49.25-10.97-17.02-31.38-22.27-49.25-12.92-14.05,7.35-27.93,15.48-42.45,21.87,2.87-1.21,5.73-2.42,8.6-3.63-12.42,5.07-26.16,7.25-39.18,10.32-13.61,3.21-27.23,6.42-40.84,9.63-18.34,4.32-30.98,26.26-25.14,44.28,6.19,19.13,24.63,29.78,44.28,25.14h0Z"/>
    <path d="m1528.95,1987.96c7.03,1.73,14.27,2.19,21.48,2.28-3.03-11.18-6.06-22.36-9.08-33.54-8.82,6.55-15.57,13.89-21.58,23.12-5.33,8.19-10.54,16.47-15.8,24.7,10.97,1.43,21.93,2.87,32.9,4.3l-.23-1.15c-.6,4.62-1.21,9.25-1.81,13.87l.61-1.07c-2.15,2.15-4.31,4.31-6.46,6.46-5.04,2.59.91.25,2.08-.17,2.51-.91,5.28-2.08,7.61-3.48,4.11-2.47,7.94-5.67,10.88-9.47,3.66-4.73,5.77-8.99,4.95-15.12-.74-5.49-3.69-10.34-8.59-13.15-2.82-1.61-5.86-2.92-9.06-3.5-1.2-.22-2.43-.31-3.62-.56-.54-.11-4.21-1.35-1.86-.37,2.17.91-.63-.54-1.01-.71-1.76-.77,2.04,1.91-.32-.33-1.33-1.26-.88-1.08-.04.25-2.42-3.84-.52-3.38-.19,3.02-.82,3.03-1.64,6.06-2.46,9.08l.46-.84c4.33-7.93,2.54-17.68-4.64-23.22-7.59-5.86-16.52-4.28-23.63,1.41-.72.58-1.44,1.15-2.16,1.73-7.39,5.91-6.62,19.38,0,25.46,7.84,7.2,17.57,6.3,25.46,0,.72-.58,1.44-1.15,2.16-1.73-9.42-7.27-18.85-14.54-28.27-21.81-6.45,11.81-.23,24.76,8.92,33.11,4.2,3.84,8.68,6.48,13.98,8.44,1.82.67,3.55,1.13,5.46,1.46.97.13,1.94.27,2.9.45,1.97.52,1.88.44-.26-.25-1.21-9.42-2.43-18.85-3.64-28.27-.79,1.03-1.59,2.01-2.5,2.93-1.25,1.26-2.54,1.71-.45.53-.5.28-4.1,1.84-1.81,1.1,2.38-.77-2.03.36-2.05.36-11.73,3.23-17.49,13.32-15.12,25.14,1.39,6.91,8.41,12.01,14.96,12.89,7.28.98,13.99-2.42,17.94-8.59,4.63-7.24,9.26-14.49,13.89-21.73,1.1-1.71,2.18-3.44,3.32-5.12.39-.57,3.36-4.39,1.23-1.83,1.07-1.28,2.2-2.53,3.38-3.71.49-.49,5.51-4.65,2.64-2.52,6.25-4.65,10.9-12.2,8.27-20.33-2.47-7.64-9.17-13.1-17.36-13.21-2.5-.03-4.99-.17-7.48-.22-2.22-.22-2.48-.21-.78.02-1.23-.21-2.45-.47-3.66-.8-9.13-2.24-19.94,2.91-22.14,12.57-2.12,9.29,2.79,19.74,12.57,22.14h0Z"/>
    <path class="cls-2" d="m1299.34,1723.6c22.21,29.7,56.05,69.68,103.42,108.56,23.71,19.46,60.69,49.39,114.77,72.7,63.72,27.46,117.48,50.63,164.79,22.84,54.97-32.28,66.44-112.95,68.77-132.66"/>
  </g>
  <path class="cls-9" d="m1803.37,1698.03c93.76,34.52,209.86,67.47,345.09,85.27,276.42,36.38,507.21-7.07,654.66-48.54"/>
</svg>